# xmcd CD database file
#
# Track frame offsets:
#	182
#	29970
#	53632
#	80107
#	102677
#	127182
#	144157
#	166740
#	189222
#	211687
#
# Disc length: 3121 seconds
#
# Revision: 0
# Processed by: cddbd v1.5.1PL0 Copyright (c) Steve Scherf et al.
# Submitted via: CDex 1.51
#
DISCID=8b0c2f0a
DTITLE=Eddie Bo - New Orleans Solo Piano
DYEAR=1995
DGENRE=Blues
TTITLE0=I Got The Blues
TTITLE1=Mardi Gras at The Boiler Room
TTITLE2=Eddie's Gospel
TTITLE3=Havin' Fun in New Orleans
TTITLE4=Boogie at The Boiler Room
TTITLE5=Eddie's Ballad
TTITLE6=Ticklin' The Blues
TTITLE7=Eddie's Mood
TTITLE8=Awesome
TTITLE9=Eddie's Big Wheel
EXTD=YEAR: 1995
EXTT0=
EXTT1=
EXTT2=
EXTT3=
EXTT4=
EXTT5=
EXTT6=
EXTT7=
EXTT8=
EXTT9=
PLAYORDER=
